<svg xmlns="http://www.w3.org/2000/svg" xmlns:xlink="http://www.w3.org/1999/xlink" width="100" height="100" viewBox="0 0 100 100"><rect width="100%" height="100%" fill="#FFFFFF"></rect><g transform="translate(50 50) scale(1 1) rotate(0) translate(-50 -50)" style="fill:#333333"><svg fill="#333333" xmlns="http://www.w3.org/2000/svg" data-name="Layer 1" viewBox="0 0 100 100" x="0px" y="0px"><title>help icon</title><path d="M50,97.88A47.88,47.88,0,1,1,97.88,50,47.93,47.93,0,0,1,50,97.88ZM50,8.13A41.88,41.88,0,1,0,91.88,50,41.92,41.92,0,0,0,50,8.13Z"></path><path d="M44.8,59.91V57.18a15.44,15.44,0,0,1,.41-3.67,13.15,13.15,0,0,1,1.28-3.26,16.38,16.38,0,0,1,2.31-3.14,40.13,40.13,0,0,1,3.59-3.38,25.62,25.62,0,0,0,3.47-3.63,6.55,6.55,0,0,0,1.24-4,6.08,6.08,0,0,0-1.86-4.38,6.78,6.78,0,0,0-5.08-1.9,8.06,8.06,0,0,0-5.61,2.15,9.17,9.17,0,0,0-1.77,2.23,10.18,10.18,0,0,0-1,2.56l-9.49-4a18.12,18.12,0,0,1,2.11-4.62,17.74,17.74,0,0,1,8.79-7.18,18.33,18.33,0,0,1,6.69-1.16A21.19,21.19,0,0,1,57.1,21a17.13,17.13,0,0,1,5.66,3.3,15,15,0,0,1,3.67,5,15.58,15.58,0,0,1,.74,10.48,15.81,15.81,0,0,1-1.57,3.55,19.26,19.26,0,0,1-2.31,3.1Q62,47.85,60.48,49.26t-2.35,2.39a10.57,10.57,0,0,0-1.49,2.11,8.64,8.64,0,0,0-.78,2.19,12.73,12.73,0,0,0-.25,2.64v1.32Zm5.28,20.31a6.78,6.78,0,0,1-5-2.1A7,7,0,0,1,43,73a7,7,0,0,1,7.1-7.1A7,7,0,0,1,55.16,68a6.79,6.79,0,0,1,2.1,5,7.19,7.19,0,0,1-7.18,7.18Z"></path></svg></g></svg>