<svg height='100px' width='100px'  fill="#555555" xmlns="http://www.w3.org/2000/svg" xmlns:xlink="http://www.w3.org/1999/xlink" xmlns:sketch="http://www.bohemiancoding.com/sketch/ns" viewBox="0 0 22 22" version="1.1" x="0px" y="0px"><title>circle_info_more-information_detail_outline_stroke</title><description>Created with Sketch.</description><defs><path d="M11,0 C17.0751325,0 22,4.25329462 22,9.5 C22,14.7467054 17.0751325,19 11,19 C9.27848099,19 7.64932754,18.6584631 6.19842901,18.0495666 L0.766113281,20.5338135 L2.11319081,15.0997556 C0.784369101,13.5295217 0,11.5938697 0,9.5 C0,4.25329462 4.92486745,0 11,0 Z M11,1 C5.47715225,1 1,4.80557941 1,9.5 C1,11.5095409 1.82041116,13.356207 3.19206569,14.8112056 L2.06799316,19.0303955 L6.07579946,16.8997469 C7.52940879,17.6001346 9.20976698,18 11,18 C16.5228478,18 21,14.1944206 21,9.5 C21,4.80557941 16.5228478,1 11,1 Z M11.25,6 C11.940356,6 12.5,5.44035595 12.5,4.75 C12.5,4.05964405 11.940356,3.5 11.25,3.5 C10.559644,3.5 10,4.05964405 10,4.75 C10,5.44035595 10.559644,6 11.25,6 L11.25,6 Z M8.5,8 L10,8 L10,14 L8.5,14 L8.5,15 L14,15 L14,14 L12.5,14 L12.5,7 L8.5,7 L8.5,8 Z" id="a"></path></defs><g stroke="none" stroke-width="1" fill="none" fill-rule="evenodd" sketch:type="MSPage"><g><use fill="#555555" fill-rule="evenodd" sketch:type="MSShapeGroup" xlink:href="#a"></use><use fill="none" xlink:href="#a"></use></g></g></svg>