<svg height='100px' width='100px'  fill="#E60000" xmlns="http://www.w3.org/2000/svg" viewBox="0 0 32 32" x="0px" y="0px"><g><path d="M27.45,15.2666a5.1661,5.1661,0,0,0-3.0225-.6084,4.9526,4.9526,0,0,0-1.749-3.9228L29.707,3.707c.9309-.9034-.51-2.3452-1.414-1.414L21.04,9.5464a11.0276,11.0276,0,0,0-4.5669-1.353A8.2644,8.2644,0,0,0,9.335,11.3916a4.8755,4.8755,0,0,0-.8125,3.2666c-2.4506-.318-5.508,1.2836-6.2168,3.6-1.0327,2.8449,1.536,5.4075,4.3123,5.71L2.293,28.293c-.929.9032.509,2.3473,1.414,1.414L9.4141,24H24.85A4.6456,4.6456,0,0,0,27.45,15.2666ZM7.24,22c-1.6424-.0049-3.6562-1.3145-3.0439-3.0908a3.99,3.99,0,0,1,5.2685-1.8848,1.0058,1.0058,0,0,0,1.4346-1.2822A3.0844,3.0844,0,0,1,11,12.501,6.2669,6.2669,0,0,1,16.3594,10.19a8.7625,8.7625,0,0,1,3.1983.8388L8.5859,22ZM24.85,22H11.4141l9.8513-9.8514a2.833,2.833,0,0,1,.8332,3.5975,1.0056,1.0056,0,0,0,1.4424,1.2744,2.9407,2.9407,0,0,1,2.95.001C29.106,18.4328,28.0806,22.1083,24.85,22Z"></path></g></svg>