<?xml version="1.0" encoding="UTF-8"?>
<svg width="100pt" height="100pt" version="1.1" viewBox="0 0 100 100" xmlns="http://www.w3.org/2000/svg">
 <g fill="#fff">
  <path d="m50.223 2c-26.555 0-48.223 21.668-48.223 48.223 0 26.555 21.668 48.223 48.223 48.223 26.555 0 48.223-21.668 48.223-48.223 0-26.555-21.668-48.223-48.223-48.223zm0 89.445c-22.777 0-41.223-18.555-41.223-41.223 0-22.777 18.555-41.223 41.223-41.223 22.777 0 41.223 18.555 41.223 41.223 0 22.777-18.445 41.223-41.223 41.223z"/>
  <path d="m50.223 21c-16.109 0-29.223 13.109-29.223 29.223 0 16.109 13.109 29.223 29.223 29.223 16.109 0 29.223-13.109 29.223-29.223 0-16.113-13.113-29.223-29.223-29.223zm0 51.555c-12.332 0-22.332-10-22.332-22.332 0-12.332 10-22.332 22.332-22.332 12.332 0 22.332 10 22.332 22.332 0 12.332-10 22.332-22.332 22.332z"/>
  <path d="m50.223 40c-5.668 0-10.223 4.5547-10.223 10.223 0 5.668 4.5547 10.223 10.223 10.223 5.668 0 10.223-4.5547 10.223-10.223 0-5.668-4.5547-10.223-10.223-10.223z"/>
 </g>
</svg>
