<svg height='100px' width='100px'  fill="#FFFFFF" xmlns="http://www.w3.org/2000/svg" xmlns:xlink="http://www.w3.org/1999/xlink" version="1.1" x="0px" y="0px" viewBox="0 0 100 100" style="enable-background:new 0 0 100 100;" xml:space="preserve"><path d="M92.8,5.8c-1.3-0.9-3.1-1.1-4.6-0.6l-24.9,9.3L38.4,5.2c0,0,0,0,0,0l0,0c-0.1,0-0.1,0-0.2-0.1c-0.1,0-0.2-0.1-0.4-0.1  c-0.1,0-0.2,0-0.3-0.1c-0.1,0-0.2,0-0.3-0.1c-0.1,0-0.2,0-0.3,0c-0.1,0-0.2,0-0.3,0c-0.1,0-0.2,0-0.3,0c-0.1,0-0.2,0-0.3,0  c-0.1,0-0.2,0-0.3,0.1c-0.1,0-0.2,0-0.3,0.1c-0.1,0-0.2,0.1-0.3,0.1c-0.1,0-0.2,0-0.2,0.1l-26.7,10c-2,0.7-3.2,2.6-3.2,4.7v70  c0,1.6,0.8,3.2,2.2,4.1C8,94.6,9,94.9,10,94.9c0.6,0,1.2-0.1,1.8-0.3l24.9-9.3l24.9,9.3c0,0,0.1,0,0.1,0c0.2,0.1,0.4,0.1,0.5,0.2  c0.1,0,0.2,0,0.3,0.1c0.3,0,0.5,0.1,0.8,0.1s0.6,0,0.8-0.1c0.1,0,0.2,0,0.3-0.1c0.2,0,0.4-0.1,0.5-0.2c0,0,0.1,0,0.1,0l26.7-10  c2-0.7,3.2-2.6,3.2-4.7v-70C95,8.2,94.2,6.7,92.8,5.8z M15,23.4l16.7-6.2v59.3L15,82.7V23.4z M41.7,17.1l16.7,6.2v59.3l-16.7-6.2  V17.1z M85,76.4l-16.7,6.2V23.4L85,17.1V76.4z"></path></svg>