<?xml version="1.0" encoding="UTF-8"?>
<svg width="1200pt" height="1200pt" version="1.1" viewBox="0 0 1200 1200" xmlns="http://www.w3.org/2000/svg">
 <g fill="#007335">
  <path d="m600 1040c-253.68 0-460-206.32-460-460 0-233.28 174.68-426.08 400-455.64v-80.879c-269.96 29.879-480 258.56-480 536.48 0 298.24 241.76 540 540 540 277.96 0 506.64-210.04 536.48-480h-80.84c-29.562 225.36-222.36 400.04-455.64 400.04z"/>
  <path d="m980 560h-323.68c-6-16.961-19.359-30.32-36.32-36.32v-323.68h-40v323.68c-23.238 8.2812-40 30.238-40 56.32 0 33.121 26.879 60 60 60 26.078 0 48.039-16.762 56.32-40h323.68z"/>
  <path d="m812.28 172.36 40.16-69.559c-29.602-15.719-60.84-28.879-93.441-38.922l-20.719 77.441c25.758 8.1211 50.398 18.68 74 31.039z"/>
  <path d="m1059 560h80c-1.2383-34.359-5.5195-67.879-12.879-100.32l-77.281 20.719c5.6797 25.762 8.9609 52.402 10.16 79.602z"/>
  <path d="m910.32 241.4 56.719-56.719c-24.719-22.961-51.48-43.559-80.16-61.602l-40.078 69.359c22.641 14.484 43.801 30.922 63.52 48.961z"/>
  <path d="m987.52 333.16 69.398-40.039c-18.039-28.68-38.68-55.48-61.602-80.16l-56.719 56.719c18.043 19.68 34.441 40.879 48.922 63.48z"/>
  <path d="m699.56 131.16 20.719-77.281c-32.441-7.3984-65.922-11.641-100.28-12.879v80c27.203 1.1992 53.805 4.4805 79.562 10.16z"/>
  <path d="m1038.7 441.72 77.441-20.719c-10.039-32.602-23.199-63.84-38.961-93.48l-69.52 40.16c12.359 23.602 22.918 48.281 31.039 74.039z"/>
 </g>
</svg>
